<?xml version="1.0" standalone="no"?><!DOCTYPE svg PUBLIC "-//W3C//DTD SVG 1.1//EN" "http://www.w3.org/Graphics/SVG/1.1/DTD/svg11.dtd"><svg t="1707320054076" class="icon" viewBox="0 0 1024 1024" version="1.1" xmlns="http://www.w3.org/2000/svg" p-id="4316" xmlns:xlink="http://www.w3.org/1999/xlink" width="500" height="500"><path d="M853.66619144 779.56798454L761.37867657 872.12599114c-6.25541182 6.27542064-14.8985659 10.18014297-24.46435783 10.18014296-9.54726553 0-18.20672346-3.90620477-24.46435783-10.18014297l-46.14523915-46.28752563c-6.25541182-6.27467979-10.12456235-14.95340495-10.12456235-24.53550144 0-19.18494192 15.49587226-34.71712612 34.5904026-34.71712612 9.56431022 0 18.20672346 3.86915125 24.48140253 10.16161659l21.66087249 21.7334978 67.8068532-68.0217643c6.25392938-6.29246533 14.91561059-10.16161657 24.46287614-10.16161658 19.11305747 0 34.60744729 15.53218491 34.60744728 34.71638526C863.79223622 764.5975349 859.92160254 773.27626079 853.66619144 779.56798454zM736.46152216 749.84199635c-12.14991962-11.03015551-27.96964165-17.97254368-45.69021928-17.97254367-38.20758854 0-69.1978499 31.08067294-69.1978499 69.43202967 0 19.20198662 7.88429398 36.41641104 20.46922463 48.892403l-0.20009039 0.19860798 31.80544366 31.91364077L194.81669351 882.30613483c-19.11231661 0-34.60744729-15.5492296-34.60744729-34.71712612L160.20924622 245.84228082c0-19.18568278 15.49513068-34.71712612 34.60744728-34.71712611l57.66228133 0-1e-8 34.71712612c0 38.33282962 30.99100294 69.43128883 69.21489458 69.43128883 38.2061061 0 69.1978499-31.09994092 69.1978499-69.43128883L390.89172002 211.12589484l34.60744729 0 0 34.71712611c0 38.33282962 30.97321739 69.43128883 69.19710904 69.43128883 38.22463322 0 69.21489458-31.09994092 69.21489459-69.43128883L563.91117094 211.12589484l34.5889209 0 0 34.71712611c0 38.33282962 30.99174379 69.43128883 69.216377 69.43128883 38.2061061 0 69.19636819-31.09994092 69.19636819-69.43128883L736.91283631 211.12589484l57.68080843 0c19.11157576 0 34.5889209 15.53144333 34.5889209 34.71712611l0 439.73890536c-19.11157576 0-36.39788393 7.77461444-48.92649309 20.32471486L736.46152216 749.84199635zM252.47897482 737.65502249c0 15.98423992 12.91026214 28.93081543 28.83966302 28.93081545l219.14690449 0c15.92940087 0 28.84040386-12.9465748 28.84040387-28.93081545l0 0 0 0 0 0 0 0c0-15.98275821-12.91100372-28.92933301-28.84040386-28.92933299L281.31863783 708.7256895C265.38849611 708.7256895 252.47897482 721.67226502 252.47897482 737.65502249zM702.30687145 407.85084349L287.08568126 407.85084349c-19.11157576 0-34.60670644 15.54997045-34.60670644 34.71712612 0 19.16567396 15.49513068 34.71638526 34.60670644 34.71638525l415.22119019 0c19.11157576 0 34.60744729-15.54997045 34.60744729-34.71638525C736.91505959 423.40081393 721.41844647 407.85084349 702.30687145 407.85084349zM702.30687145 558.28900807L494.69627636 558.28900807l-57.66228133 0-149.94905462 0c-19.11157576 0-34.60670644 15.53144333-34.60670644 34.7156444 0 19.16641481 15.49513068 34.71712612 34.60670644 34.71712612l149.94979548 0 57.66228132 0 207.60985424 0c19.11157576 0 34.60744729-15.5492296 34.60744729-34.71712612C736.91505959 573.8204514 721.41844647 558.28900807 702.30687145 558.28900807zM667.7172097 280.55792451c-19.11157576 0-34.60744729-15.54997045-34.6074473-34.71638526L633.1097624 176.40950957c0-19.16641481 15.49587226-34.71638526 34.6074473-34.71638525 19.11305747 0 34.59040261 15.5492296 34.59040261 34.71638525l0 69.43202968C702.30687145 265.00869565 686.83026717 280.55792451 667.7172097 280.55792451zM494.69627636 280.55792451c-19.11157576 0-34.60744729-15.54997045-34.6074473-34.71638526L460.08882906 176.40950957c0-19.16641481 15.49587226-34.71638526 34.6074473-34.71638525 19.11157576 0 34.60744729 15.5492296 34.60744729 34.71638525l0 69.43202968C529.30372364 265.00869565 513.80785138 280.55792451 494.69627636 280.55792451zM321.69387013 280.55792451c-19.11231661 0-34.60818815-15.54997045-34.60818814-34.71638526L287.08568126 176.40950957c0-19.16641481 15.49587226-34.71638526 34.60818814-34.71638525 19.09527192 0 34.58966175 15.5492296 34.58966176 34.71638525l0 69.43202968C356.28353116 265.00869565 340.78914133 280.55792451 321.69387013 280.55792451z"  p-id="4317"></path></svg>