<?xml version="1.0" standalone="no"?><!DOCTYPE svg PUBLIC "-//W3C//DTD SVG 1.1//EN" "http://www.w3.org/Graphics/SVG/1.1/DTD/svg11.dtd"><svg t="1707320057300" class="icon" viewBox="0 0 1024 1024" version="1.1" xmlns="http://www.w3.org/2000/svg" p-id="4469" xmlns:xlink="http://www.w3.org/1999/xlink" width="500" height="500"><path d="M848.82311181 237.07906115a116.34527871 116.34527871 0 0 0-107.31235534-71.15833808l-30.97480612 0.02232379a24.66264281 24.66264281 0 1 0 0.02232455 49.32249544h30.99433974a66.57071859 66.57071859 0 0 1 47.40540574 19.67318815C801.61583308 247.6467719 808.54191184 264.50990331 808.54191184 282.43622384v81.31863254L215.37158242 363.73253259l-0.09208765-0.02511475V282.43622384a67.17347173 67.17347173 0 0 1 67.10370864-67.11208073L314.06122166 215.55575697h0.1785934a24.69612889 24.69612889 0 0 0 0.17022208-49.39225854l-31.78126742-0.22045158h-0.17022208A116.5322442 116.5322442 0 0 0 165.88444603 282.43622384v459.08290395A116.36481231 116.36481231 0 0 0 282.46412878 857.9341696h459.07174244A116.16947548 116.16947548 0 0 0 857.9341696 741.51912779V282.43622384a115.73694442 115.73694442 0 0 0-9.11105779-45.35716269z m-59.88462503 551.85105429a66.51211778 66.51211778 0 0 1-47.40261555 19.6117964H282.46412878a66.71861613 66.71861613 0 0 1-47.49470321-19.61458735c-12.67734632-12.67455614-19.69272099-29.48466711-19.69272099-47.41098688V413.12479112h0.0892967l593.17591055 0.02232379v328.37201288a66.51490796 66.51490796 0 0 1-19.60342506 47.4081967z"  p-id="4470"></path><path d="M437.82092001 240.06492113a24.69612889 24.69612889 0 0 0 24.69612966-24.69612967V165.93188458a24.69612889 24.69612889 0 0 0-49.39225855 0v49.43690688a24.69612889 24.69612889 0 0 0 24.69612889 24.69612967zM586.27674802 240.06492113a24.69612889 24.69612889 0 0 0 24.69612966-24.69612967V165.93188458a24.69612889 24.69612889 0 0 0-49.39225855 0v49.43690688a24.69612889 24.69612889 0 0 0 24.69612889 24.69612967zM610.97287767 462.51704967h-197.84808654a24.69612889 24.69612889 0 0 0-1e-8 49.39225853h151.27983722c-7.62091876 12.21691035-16.18503405 26.80297429-24.77426407 43.12753375-15.02138594 28.55542305-27.0206349 56.59180776-35.66567557 83.32501972-11.05605243 34.19786033-16.66221345 66.49537437-16.66221344 95.99399394a24.69612889 24.69612889 0 1 0 49.39225852 0c0-24.20499701 4.74388911-51.23400401 14.12004682-80.34194993 7.70742451-23.94826918 18.51791139-49.25273234 32.12450178-75.21296908 23.49341357-44.81859153 47.40540574-76.26499592 47.6342294-76.56358191A24.69612889 24.69612889 0 0 0 610.97287767 462.51704967z"  p-id="4471"></path></svg>