<?xml version="1.0" standalone="no"?><!DOCTYPE svg PUBLIC "-//W3C//DTD SVG 1.1//EN" "http://www.w3.org/Graphics/SVG/1.1/DTD/svg11.dtd"><svg t="1707994695230" class="icon" viewBox="0 0 1024 1024" version="1.1" xmlns="http://www.w3.org/2000/svg" p-id="55855" id="mx_n_1707994695231" xmlns:xlink="http://www.w3.org/1999/xlink" width="500" height="500"><path d="M960 172.8C960 108.8 832 64 684.8 64S403.2 108.8 403.2 172.8c0 0 0 185.6 0 192-19.2 0-44.8 0-64 0C192 358.4 64 403.2 64 460.8l0 403.2C64 921.6 192 960 339.2 960c153.6 0 275.2-38.4 275.2-89.6l0-38.4c19.2 0 44.8 0 64 0 153.6 0 275.2-38.4 275.2-89.6L953.6 172.8zM563.2 659.2c-12.8 25.6-89.6 64-217.6 64-128 0-211.2-38.4-217.6-64L128 556.8c51.2 32 134.4 44.8 217.6 44.8 83.2 0 166.4-12.8 217.6-44.8L563.2 659.2zM339.2 416c128 0 204.8 38.4 217.6 51.2l0 19.2c-12.8 25.6-89.6 64-217.6 64-128 0-211.2-38.4-217.6-64L121.6 467.2C134.4 448 211.2 416 339.2 416zM339.2 902.4c-121.6 0-198.4-25.6-217.6-44.8l0-128c51.2 32 134.4 44.8 217.6 44.8 83.2 0 166.4-12.8 217.6-44.8l0 128C544 876.8 460.8 902.4 339.2 902.4zM902.4 729.6c-19.2 19.2-96 44.8-217.6 44.8-25.6 0-44.8 0-64 0l0-128c19.2 0 44.8 6.4 64 6.4 83.2 0 166.4-12.8 217.6-44.8L902.4 729.6zM902.4 524.8c-12.8 25.6-89.6 64-217.6 64-25.6 0-44.8 0-64-6.4L620.8 473.6c19.2 0 44.8 6.4 64 6.4 83.2 0 166.4-12.8 217.6-44.8L902.4 524.8zM902.4 358.4c-12.8 25.6-89.6 64-217.6 64-38.4 0-70.4 0-96-6.4-25.6-19.2-64-32-115.2-44.8C467.2 364.8 467.2 364.8 460.8 358.4L460.8 268.8c51.2 32 134.4 44.8 217.6 44.8s166.4-12.8 217.6-44.8L896 358.4zM902.4 192c-12.8 25.6-89.6 64-217.6 64-128 0-211.2-38.4-217.6-64L467.2 172.8c12.8-19.2 89.6-51.2 217.6-51.2s204.8 38.4 217.6 51.2L902.4 192z"  p-id="55856"></path></svg>