<?xml version="1.0" standalone="no"?><!DOCTYPE svg PUBLIC "-//W3C//DTD SVG 1.1//EN" "http://www.w3.org/Graphics/SVG/1.1/DTD/svg11.dtd"><svg t="1710836874216" class="icon" viewBox="0 0 1024 1024" version="1.1" xmlns="http://www.w3.org/2000/svg" p-id="4454" xmlns:xlink="http://www.w3.org/1999/xlink" width="500" height="500"><path d="M940.432738 942.35936v-66.107243h-66.107244l66.107244 66.107243z m0 0M146.42333 148.349953H311.87206v165.44873l66.107244 66.107244V82.122295H80.316087l66.107243 66.227658z m0 0" p-id="4455" data-spm-anchor-id="a313x.search_index.0.i3.26ac3a81AxEERs" class="selected" fill="#00AFC7"></path><path d="M940.432738 677.689558h-66.107244v-66.107244H642.649106v33.113829l66.107244 66.107244v-33.113829h66.107244v66.227657H741.749765l132.334901 132.334902v-66.107244H940.432738v-132.455315z m0 0M278.758231 280.684854v-99.221072h-99.221072l99.221072 99.221072z m0 0M444.206961 82.122295h66.107244v66.227658h-66.107244zM642.649106 82.122295v297.783632H940.432738V82.122295H642.649106z m231.676388 231.676388H708.876764V148.349953h165.44873v165.44873z m0 0" p-id="4456" data-spm-anchor-id="a313x.search_index.0.i2.26ac3a81AxEERs" class="selected" fill="#00AFC7"></path><path d="M741.990593 181.463782h99.221072v99.221072h-99.221072zM675.762935 578.468485v-66.107243h66.227658v-66.107244H576.541863V346.792098h-66.107244v99.221072H444.327375l66.107244 66.107244h66.107244v66.107244h99.221072z m0 0M510.314205 280.684854h66.107244V148.349953h-66.107244v66.227658h-66.107244V346.792098h66.107244v-66.107244z m0 0M874.325494 446.133584h-66.107244v66.107244h-66.107243v66.107243H940.432738v-66.107243h-66.107244v-66.107244z m0 0" p-id="4457" data-spm-anchor-id="a313x.search_index.0.i1.26ac3a81AxEERs" class="selected" fill="#00AFC7"></path></svg>