<svg id="图层_1" data-name="图层 1" xmlns="http://www.w3.org/2000/svg" viewBox="0 0 200 200"><defs></defs><path id="路径_2131" data-name="路径 2131" class="cls-1" d="M176.5,79.35a10.44,10.44,0,0,0,6.48-9.9V56.36a21,21,0,0,0-20-21.81H76.33V49.09H69.67V34.55H43A21,21,0,0,0,23,56.36v12.7a11,11,0,0,0,6.71,10.38A21,21,0,0,1,41.92,92.86a22.38,22.38,0,0,1-12.36,27.77,10.55,10.55,0,0,0-6.54,10v13a21,21,0,0,0,20,21.81H69.67V150.91h6.66v14.54H163a21,21,0,0,0,20-21.81V130.73a10.72,10.72,0,0,0-6.6-10.13,21,21,0,0,1-12.32-13.52A22.37,22.37,0,0,1,176.5,79.35Zm-100.17,57H69.67V121.82h6.66Zm0-29.09H69.67V92.73h6.66Zm0-29.09H69.67V63.64h6.66Z"/></svg>