<svg id="图层_1" data-name="图层 1" xmlns="http://www.w3.org/2000/svg" viewBox="0 0 200 200"><defs></defs><path id="路径_2121" data-name="路径 2121" class="cls-1" d="M143.56,20H56.37A29.3,29.3,0,0,0,27.31,49.53h0V174.86a5.09,5.09,0,0,0,9.09,3.19l10.26-13.31a7.17,7.17,0,0,1,9.72,0L70.91,178a7.19,7.19,0,0,0,9.73,0l14.53-13.26a7.17,7.17,0,0,1,9.72,0L119.42,178a7.17,7.17,0,0,0,9.72,0l14.53-13.26a7.19,7.19,0,0,1,9.73,0l10.27,13.31a5.09,5.09,0,0,0,9.09-3.19V49.53A29.3,29.3,0,0,0,143.7,20ZM100,121.84H63.63a7.27,7.27,0,0,1,0-14.54H100a7.27,7.27,0,1,1,0,14.54ZM136.29,78.2H63.63a7.28,7.28,0,0,1,0-14.55h72.66a7.28,7.28,0,0,1,0,14.55Z"/></svg>