<svg id="图层_1" data-name="图层 1" xmlns="http://www.w3.org/2000/svg" viewBox="0 0 200 200"><defs></defs><path class="cls-1" d="M160.29,100.59a81.57,81.57,0,0,1-10,34.23c.55.08,1.11.17,1.66.23.25,0,.47.06.72.06a21,21,0,0,0,3.26-.11l.93-.1a23.2,23.2,0,0,0,3.5-.73C171,131,179.28,120.85,176.7,111.81S167.28,101.44,160.29,100.59ZM107.86,28c-20.25,20.77,15.92,30.69,3.34,51.5h10.16V89h-10.5a4.06,4.06,0,0,0-4,4.09v28a4.05,4.05,0,0,0,4,4.08h27.68a4.05,4.05,0,0,0,4-4.08v-28a4.06,4.06,0,0,0-4-4.09H128V79.46h22.6c4.84,0,8.87,5.17,9.7,10a39,39,0,0,1,4.49.48c.07,0,.18.06.29.06a30.58,30.58,0,0,1,8.08,2.6,2.55,2.55,0,0,1,.47.23,26.94,26.94,0,0,1,3.41,2s0,0,.06,0a28.93,28.93,0,0,1,3,2.45c.17.2.36.37.53.54a23.4,23.4,0,0,1,2.44,2.76.31.31,0,0,1,.08.11,25.57,25.57,0,0,1,1.94,3.19c.14.25.25.51.39.79a23.31,23.31,0,0,1,1.39,3.58c4.17,14.75-6.42,30.94-23.63,36.22a37,37,0,0,1-4.26,1,40,40,0,0,1-5.24.59h0a34.2,34.2,0,0,1-4.2-.14l-.86-.08a32.06,32.06,0,0,1-4-.64c-5.15,7.72-11.88,18.67-20.8,26.79H65.2C33.91,155.22,28.83,109.65,28,95.75c0-.11,0-.23,0-.37v-.23c-.13-2.24-.14-3.6-.14-3.86v-.05h.11c0-5.64,4.45-11.79,9.9-11.79H75.47a24.81,24.81,0,0,0-5.64-9.93c-3.71-3.72-8.91-17.89,10.86-27C66.51,57.12,88,66.14,88.58,79.43h12.53a22.15,22.15,0,0,0-6.52-18.58C88.19,54.93,83.06,36,107.86,28Z"/></svg>