<svg id="图层_1" data-name="图层 1" xmlns="http://www.w3.org/2000/svg" viewBox="0 0 200 200"><defs></defs><path id="联合_55" data-name="联合 55" class="cls-1" d="M117.75,139.34a36.37,36.37,0,1,1,36.37,36.36A36.37,36.37,0,0,1,117.75,139.34Zm19.57-5a4.73,4.73,0,0,0,0,6.7h0l10.06,10.08a4.77,4.77,0,0,0,6.73,0l16.78-16.79a4.75,4.75,0,0,0-6.71-6.71L150.75,141,144,134.31a4.78,4.78,0,0,0-6.72,0ZM66.85,175.7a36.36,36.36,0,0,1-36.37-36.36V52.07A36.37,36.37,0,0,1,66.85,15.7h72.72a36.37,36.37,0,0,1,36.37,36.37v49.54A43.6,43.6,0,0,0,130,175.7Zm-7.28-89v3.43a5.55,5.55,0,0,0,5.55,5.55h39.8a5.55,5.55,0,0,0,5.56-5.55h0V86.71a5.55,5.55,0,0,0-5.56-5.55H65.12A5.55,5.55,0,0,0,59.57,86.71Zm0-34.64a7.28,7.28,0,0,0,7.28,7.27h72.72a7.28,7.28,0,1,0,0-14.55H66.85A7.28,7.28,0,0,0,59.57,52.07Z"/></svg>