<svg id="图层_1" data-name="图层 1" xmlns="http://www.w3.org/2000/svg" viewBox="0 0 200 200"><defs></defs><path id="联合_9" data-name="联合 9" class="cls-1" d="M102.25,183.06l-60-10.61A18.4,18.4,0,0,1,28,154.17V55.32A18.45,18.45,0,0,1,41.38,37.25l60.43-13.79A8.8,8.8,0,0,1,112.4,30l.06.28a10.27,10.27,0,0,1,.26,2.21V173.92a9.07,9.07,0,0,1-8.82,9.3A7.69,7.69,0,0,1,102.25,183.06ZM70.74,103.21c0,9.68,5.6,17.54,12.53,17.54s12.54-7.86,12.54-17.54-5.6-17.52-12.54-17.52S70.74,93.53,70.74,103.21ZM129,176.13v-134h25.44A18.11,18.11,0,0,1,172,60.73v96.82a18.11,18.11,0,0,1-17.6,18.6Z"/></svg>