<svg id="图层_1" data-name="图层 1" xmlns="http://www.w3.org/2000/svg" viewBox="0 0 200 200"><defs></defs><path class="cls-1" d="M177.19,114.42c-6.08-21.59-18.93-38.26-39.07-49.6-2.33-1.31-4.76-2.39-7.19-3.58a.37.37,0,0,1,.07-.14l1.22-1.17a34.76,34.76,0,0,0,9.34-13.4c.87-2.34,1.37-4.87,2.06-7.3A12.78,12.78,0,0,0,139.12,25c-6.19-5.05-13.2-5.64-20.65-2.68-.5.2-.84.35-1.36-.11A26.15,26.15,0,0,0,82.83,22a1.08,1.08,0,0,1-1.36.23A20,20,0,0,0,69.32,21C61.41,22.59,54.85,29.06,56,37.88a35.18,35.18,0,0,0,9.44,20c1.1,1.17,2.26,2.33,3.43,3.5l-.87.4a80.2,80.2,0,0,0-47.76,67.54,72.85,72.85,0,0,0,2,24.29A29.75,29.75,0,0,0,51.09,175.7c32.7-.08,65.4,0,98.1,0,10.5,0,18.59-4.55,24.46-12.84a32.52,32.52,0,0,0,5.2-14A79.61,79.61,0,0,0,177.19,114.42Zm-48.1,32.19H70.91a7.28,7.28,0,0,1,0-14.55h58.18a7.28,7.28,0,0,1,0,14.55Zm0-29.09H70.91a7.28,7.28,0,0,1,0-14.55h58.18a7.28,7.28,0,0,1,0,14.55Z"/></svg>