<svg id="图层_1" data-name="图层 1" xmlns="http://www.w3.org/2000/svg" viewBox="0 0 200 200"><defs></defs><path id="联合_52" data-name="联合 52" class="cls-1" d="M147.16,175.61A12.88,12.88,0,0,0,137,180.76a32.25,32.25,0,0,1-12-7.5,14.33,14.33,0,0,0-.94-11.7,13.08,13.08,0,0,0-8.81-6.65,36.51,36.51,0,0,1,.19-14.54,13.08,13.08,0,0,0,9.18-6.7,14.39,14.39,0,0,0,1.06-11.34,32.36,32.36,0,0,1,11.43-6.91,12.67,12.67,0,0,0,17.72,2.73,13.08,13.08,0,0,0,2.73-2.73,32.28,32.28,0,0,1,11.58,7.06,14.36,14.36,0,0,0,.87,11.88,13,13,0,0,0,9.36,6.73,36.39,36.39,0,0,1,0,14,13.06,13.06,0,0,0-9.38,6.72,14.37,14.37,0,0,0-.85,11.92,32,32,0,0,1-11.64,7.07A12.86,12.86,0,0,0,147.16,175.61ZM135.8,148.09a11.45,11.45,0,1,0,11.46-11.44,11.45,11.45,0,0,0-11.46,11.44v0ZM33.33,180.8A13.31,13.31,0,0,1,20,167.51v0a66.63,66.63,0,0,1,48.59-64.09,47.25,47.25,0,1,1,66.72-3.93,48.58,48.58,0,0,1-3.93,3.93c2.18.62,4.25,1.37,6.32,2.18a43.53,43.53,0,0,0-19.25,75.23Z"/></svg>