<svg id="图层_1" data-name="图层 1" xmlns="http://www.w3.org/2000/svg" viewBox="0 0 200 200"><defs></defs><path id="联合_54" data-name="联合 54" class="cls-1" d="M56.36,180a29.09,29.09,0,0,1-29.09-29.09V63.64A29.1,29.1,0,0,1,56.36,34.55H60A21.82,21.82,0,0,0,81.82,56.37h36.36A21.82,21.82,0,0,0,140,34.55h3.64a29.1,29.1,0,0,1,29.09,29.09v87.27A29.09,29.09,0,0,1,143.64,180Zm7.28-44.27V137a6.63,6.63,0,0,0,6.62,6.64h59.47a6.62,6.62,0,0,0,6.64-6.61v-1.3a6.63,6.63,0,0,0-6.63-6.64H70.28A6.64,6.64,0,0,0,63.64,135.73Zm0-43.64v1.27A6.64,6.64,0,0,0,70.28,100h59.45a6.64,6.64,0,0,0,6.64-6.64h0V92.09a6.63,6.63,0,0,0-6.63-6.63H70.28a6.64,6.64,0,0,0-6.64,6.64h0Zm18.18-43a14.55,14.55,0,1,1,0-29.09h36.36a14.55,14.55,0,1,1,0,29.09Z"/></svg>