<svg id="图层_1" data-name="图层 1" xmlns="http://www.w3.org/2000/svg" viewBox="0 0 200 200"><defs></defs><path id="路径_2050" data-name="路径 2050" class="cls-1" d="M144.44,30.33H55.56A36,36,0,0,0,20,66.7v72.72a36,36,0,0,0,35.56,36.37h88.88A36,36,0,0,0,180,139.42V66.7A36,36,0,0,0,144.44,30.33ZM156,143.57a9,9,0,0,1-8.89,9.09H52.89A9,9,0,0,1,44,143.57V115.06a9.2,9.2,0,0,1,2.58-6.4L61.69,93.05A8.72,8.72,0,0,1,74,92.76a4,4,0,0,1,.29.29l27.37,28.27a8.73,8.73,0,0,0,12.34.3l.29-.3,11.36-11.74a8.72,8.72,0,0,1,12.34-.3q.15.14.3.3l15.11,15.66a9.24,9.24,0,0,1,2.57,6.4Zm-16-57a16.54,16.54,0,1,1,16-17.08c0,.17,0,.35,0,.52a16.28,16.28,0,0,1-16,16.57h0Z"/></svg>