<svg id="图层_1" data-name="图层 1" xmlns="http://www.w3.org/2000/svg" viewBox="0 0 200 200"><defs></defs><path id="联合_53" data-name="联合 53" class="cls-1" d="M49.09,175.79A29.1,29.1,0,0,1,20,146.7V74H180V146.7a29.1,29.1,0,0,1-29.09,29.09Zm23.71-41a6,6,0,0,0,6,6.06H94v10.74A6,6,0,1,0,106,152a2.54,2.54,0,0,0,0-.39V140.82h15.12a6,6,0,0,0,0-12.09H106v-7.39h15.12a6.05,6.05,0,0,0,0-12.1h-6.55l6.79-6.77a6,6,0,0,0-8.56-8.54L100,106.75,87.19,93.93a6,6,0,0,0-8.54,8.54l6.79,6.77H78.89a6.05,6.05,0,1,0,0,12.1H94v7.39H78.89a6,6,0,0,0-6.09,6ZM20,59.42A29.1,29.1,0,0,1,49.09,30.33H150.91A29.1,29.1,0,0,1,180,59.42Z"/></svg>