<?xml version="1.0" standalone="no"?><!DOCTYPE svg PUBLIC "-//W3C//DTD SVG 1.1//EN" "http://www.w3.org/Graphics/SVG/1.1/DTD/svg11.dtd"><svg t="1721153750140" class="icon" viewBox="0 0 1024 1024" version="1.1" xmlns="http://www.w3.org/2000/svg" p-id="5754" xmlns:xlink="http://www.w3.org/1999/xlink" width="200" height="200"><path d="M176 176v672h672V176H176z m640 640H208V208h608v608z" p-id="5755"></path><path d="M511 765c114.7 0 208-93.3 208-208s-93.3-208-208-208-208 93.3-208 208 93.3 208 208 208z m0-32c-81.9 0-150.9-56.2-170.5-132.1 48.2 45.4 89.8 50.8 112.6 49.1 23.3-1.7 38.8-11.5 53.8-20.9 12.4-7.8 24.1-15.2 40.9-18.3 33.2-6.1 70.8 7.4 111.9 40.2-31.1 49.2-86.1 82-148.7 82z m0-352c97 0 176 79 176 176 0 22.9-4.4 44.8-12.4 64.9-46.8-35.9-91.3-50.2-132.5-42.6-22.9 4.2-38.5 14-52.2 22.7-13.3 8.4-23.7 15-39.1 16.1-10.2 0.7-26.7-0.6-47.6-11.1-23-11.6-45.8-31.5-68-59.2C340.1 455 417.1 381 511 381z" p-id="5756"></path><path d="M513 278m-32 0a32 32 0 1 0 64 0 32 32 0 1 0-64 0Z" p-id="5757"></path><path d="M640 246h128v64H640z" p-id="5758"></path></svg>