<?xml version="1.0" standalone="no"?><!DOCTYPE svg PUBLIC "-//W3C//DTD SVG 1.1//EN" "http://www.w3.org/Graphics/SVG/1.1/DTD/svg11.dtd"><svg t="1707320050615" class="icon" viewBox="0 0 1024 1024" version="1.1" xmlns="http://www.w3.org/2000/svg" p-id="4163" xmlns:xlink="http://www.w3.org/1999/xlink" width="500" height="500"><path d="M845.1345544 148.47740615L633.17419825 148.47740615c-49.4372584 0-93.43188281 23.88711533-121.09860616 60.62489473-27.66672246-36.7377794-71.66134688-60.62489473-121.09860615-60.62489473L178.8654456 148.47740615c-33.4117248 0-60.62489473 27.21316992-60.62489472 60.62489473l0 560.28893027c0 33.4117248 27.21316992 60.62489473 60.62489472 60.62489473l222.69443995 0c29.78330273 29.02738096 69.24239912 45.35528291 110.51570654 45.3552829s80.73240381-16.32790195 110.51570655-45.3552829L845.1345544 830.01612676c33.4117248 0 60.62489473-27.21316992 60.62489472-60.62489473L905.75944912 209.10230175C905.75944912 175.69057607 878.5462792 148.47740615 845.1345544 148.47740615zM845.1345544 769.39123115L609.43826622 769.39123115c-8.76868769 0-17.23500791 3.77960713-22.98001026 10.58289961-18.89803477 22.0729043-46.11120469 34.7723833-74.38266387 34.7723833-28.27146006 0-55.48462998-12.69947901-74.38266386-34.7723833-5.74500234-6.80329248-14.21132168-10.58289961-22.98001026-10.58289961l-235.84747149 0L178.8654456 209.10230175l211.96035615 1e-8c50.04199599 0 90.86175 40.81975489 90.86175 90.86175l0 257.46682324c0 16.78145449 13.60658497 30.23685527 30.23685528 30.23685527 16.78145449 0 30.23685527-13.60658497 30.23685527-30.23685527L542.16126318 299.96405176c0-50.04199599 40.81975489-90.86175 90.86175-90.86175001L845.1345544 209.10230175 845.1345544 769.39123115z"  p-id="4164"></path></svg>