<?xml version="1.0" standalone="no"?><!DOCTYPE svg PUBLIC "-//W3C//DTD SVG 1.1//EN" "http://www.w3.org/Graphics/SVG/1.1/DTD/svg11.dtd"><svg t="1707320067011" class="icon" viewBox="0 0 1024 1024" version="1.1" xmlns="http://www.w3.org/2000/svg" p-id="4929" xmlns:xlink="http://www.w3.org/1999/xlink" width="500" height="500"><path d="M428.544 523.776h-204.8c-37.376 0-68.096 30.72-68.096 68.096v204.8c0 37.376 30.72 68.096 68.096 68.096h204.8c37.376 0 68.096-30.72 68.096-68.096v-204.8c0-37.376-30.72-68.096-68.096-68.096z m0 273.408h-204.8v-204.8h204.8v204.8z m166.912-304.128h204.8c37.376 0 68.096-30.72 68.096-68.096v-204.8c0-37.376-30.72-68.096-68.096-68.096h-204.8c-37.376 0-68.096 30.72-68.096 68.096v204.8c0 37.376 30.72 68.096 68.096 68.096z m0-272.896h204.8v204.8h-204.8v-204.8z m209.92 310.784h-204.8c-37.376 0-68.096 30.72-68.096 68.096v204.8c0 37.376 30.72 68.096 68.096 68.096h204.8c37.376 0 68.096-30.72 68.096-68.096v-204.8c0.512-37.376-30.208-68.096-68.096-68.096z m0 272.896h-204.8v-204.8h204.8v204.8zM206.336 460.8c30.72 20.48 65.024 32.256 100.864 32.256 8.704 0 16.896 0 25.6-1.536 92.16-13.824 157.184-102.4 141.824-194.56-6.656-44.544-30.72-83.456-68.096-111.104-35.84-27.136-81.92-37.376-126.464-30.72-44.544 6.656-83.456 30.72-111.104 68.096-27.136 35.84-37.376 81.92-30.72 126.464 6.656 44.544 30.72 83.968 68.096 111.104z m18.944-198.144c15.36-22.016 39.424-37.376 66.56-40.96 5.12-1.536 10.24-1.536 15.36-1.536 49.664 0 93.696 35.84 102.4 87.04 8.704 56.32-29.184 109.056-85.504 117.76-27.136 3.584-54.784-3.584-76.8-18.944s-37.376-39.424-40.96-66.56c-3.072-27.136 3.584-54.272 18.944-76.8z"  p-id="4930"></path></svg>