<?xml version="1.0" standalone="no"?><!DOCTYPE svg PUBLIC "-//W3C//DTD SVG 1.1//EN" "http://www.w3.org/Graphics/SVG/1.1/DTD/svg11.dtd"><svg t="1707320063974" class="icon" viewBox="0 0 1024 1024" version="1.1" xmlns="http://www.w3.org/2000/svg" p-id="4776" xmlns:xlink="http://www.w3.org/1999/xlink" width="500" height="500"><path d="M667.34459259 791.62026667V926.25224651h-103.56306132v-212.30427614c129.45382756-20.71261275 233.01688889-124.27567408 253.72950042-253.72950164h103.56306254c-15.53445925 150.1664391-119.09752059 279.62026667-253.72950164 331.40179794z m-310.68918518 0c-139.81013333-51.78153127-238.19504238-181.23535762-258.90765392-331.40179794h103.56306133c20.71261275 129.45382756 124.27567408 233.01688889 253.72950163 253.72950164V926.25224651H356.65540741v-134.63197984zM625.91936831 149.52928355C708.76981689 149.52928355 770.90765392 206.48896831 770.90765392 294.51757037c0 72.49414281-62.13783703 150.1664391-108.74121482 191.59166461-31.06891852 31.06891852-82.85044978 62.13783703-150.1664391 98.38490783-67.31599053-36.24707201-119.09752059-67.31599053-150.1664391-98.38490783-51.78153127-46.60337778-108.74121482-119.09752059-108.74121482-191.59166461C253.09234608 206.48896831 315.23018311 149.52928355 398.08063169 149.52928355c46.60337778 0 82.85044978 20.71261275 113.91936831 56.95968476 31.06891852-36.24707201 67.31599053-56.95968355 113.91936831-56.95968476z"  p-id="4777"></path></svg>