<?xml version="1.0" standalone="no"?><!DOCTYPE svg PUBLIC "-//W3C//DTD SVG 1.1//EN" "http://www.w3.org/Graphics/SVG/1.1/DTD/svg11.dtd"><svg t="1707320071346" class="icon" viewBox="0 0 1024 1024" version="1.1" xmlns="http://www.w3.org/2000/svg" p-id="5078" xmlns:xlink="http://www.w3.org/1999/xlink" width="500" height="500"><path d="M771.25537109 877.64697266c-15.02929688 0-29.66308594-5.93261719-40.73730468-16.80908204l-202.10449219-156.42333984c-0.39550781-0.39550781-0.79101563-0.79101563-1.38427734-0.98876953-11.66748047-9.88769531-26.89453125-9.88769531-38.75976563 0-0.39550781 0.39550781-0.79101563 0.79101563-1.18652344 0.98876953L286.36279297 860.44238281c-16.41357422 16.41357422-40.53955078 21.35742188-62.29248047 12.85400391-22.34619141-8.89892578-36.78222656-30.05859375-36.78222656-53.98681641V226.83886719c0-43.70361328 35.39794922-79.1015625 79.1015625-79.1015625h483.70605469c43.70361328 0 79.1015625 35.39794922 79.1015625 79.1015625v592.86621094c0 23.92822266-14.43603516 45.08789063-36.58447266 53.9868164-6.92138672 2.57080078-14.23828125 3.95507813-21.35742188 3.95507813zM558.07666016 667.43457031L760.97216797 824.45117188c0.98876953 0.79101563 1.97753906 1.58203125 2.76855469 2.57080078 4.35058594 4.54833984 9.09667969 3.55957031 11.66748047 2.57080078 2.57080078-0.98876953 6.72363281-3.55957031 6.72363281-9.88769532V226.83886719c0-17.40234375-14.23828125-31.640625-31.640625-31.640625H266.58740234c-17.40234375 0-31.640625 14.23828125-31.640625 31.640625v592.47070312c0 6.328125 4.15283203 8.89892578 6.72363282 9.88769531s7.31689453 1.97753906 11.66748046-2.57080078c0.79101563-0.98876953 1.77978516-1.77978516 2.76855469-2.57080078l201.31347657-156.42333984c29.86083984-25.3125 71.19140625-25.3125 100.65673828-0.19775391zM527.62255859 703.82128906z m-1.18652343-0.98876953z m-53.7890625-17.20458984z m86.61621093-17.00683594z m-1.77978515-1.77978516c0 0.19775391 0 0 0 0z"  p-id="5079"></path><path d="M628.08154297 449.11425781H393.94091797c-13.05175781 0-23.73046875-10.67871094-23.73046875-23.73046875s10.67871094-23.73046875 23.73046875-23.73046875h234.140625c13.05175781 0 23.73046875 10.67871094 23.73046875 23.73046875s-10.67871094 23.73046875-23.73046875 23.73046875z"  p-id="5080"></path><path d="M510.22021484 562.42724609c-13.05175781 0-23.73046875-10.67871094-23.73046875-23.73046875V304.55615234c0-13.05175781 10.67871094-23.73046875 23.73046875-23.73046875s23.73046875 10.67871094 23.73046875 23.73046875v234.140625c0 13.05175781-10.67871094 23.73046875-23.73046875 23.73046875z"  p-id="5081"></path></svg>