<?xml version="1.0" standalone="no"?><!DOCTYPE svg PUBLIC "-//W3C//DTD SVG 1.1//EN" "http://www.w3.org/Graphics/SVG/1.1/DTD/svg11.dtd"><svg t="1707320045272" class="icon" viewBox="0 0 1024 1024" version="1.1" xmlns="http://www.w3.org/2000/svg" p-id="4010" xmlns:xlink="http://www.w3.org/1999/xlink" width="500" height="500"><path d="M852.03125 194.75q30.375 30.375 45.140625 67.921875t14.765625 77.203125-14.765625 77.203125-45.140625 67.921875l-323.15625 320.625q-30.375 30.375-74.671875 50.625t-93.65625 23.625-100.828125-13.5-95.34375-60.75q-43.03125-43.03125-59.90625-93.234375t-13.5-99.984375 23.203125-93.65625 50.203125-74.25l286.875-284.34375q7.59375-7.59375 22.359375-3.796875t22.359375 11.390625q6.75 7.59375 10.96875 22.359375t-3.375 22.359375l-286.03125 283.5q-22.78125 22.78125-37.96875 53.15625t-17.71875 64.96875 10.125 70.03125 45.5625 68.34375q29.53125 29.53125 65.390625 41.765625t71.296875 10.125 67.5-15.609375 54.84375-36.28125l322.3125-319.78125q22.78125-22.78125 32.484375-47.25t9.28125-48.515625-11.390625-46.828125-30.375-42.1875q-36.28125-35.4375-81.421875-33.328125t-90.703125 47.671875l-291.09375 289.40625q-19.40625 19.40625-18.984375 43.03125t15.609375 38.8125q18.5625 18.5625 42.609375 15.1875t39.234375-18.5625l264.09375-262.40625q7.59375-7.59375 22.359375-3.796875t22.359375 11.390625 11.8125 22.359375-3.375 22.359375l-264.9375 262.40625q-30.375 30.375-58.21875 42.1875t-52.3125 10.546875-45.5625-13.078125-38.8125-28.6875q-14.34375-13.5-25.734375-34.59375t-13.078125-46.40625 8.859375-54 40.921875-58.21875q15.1875-15.1875 27-27.84375 10.125-10.96875 18.984375-19.40625t9.703125-9.28125l235.40625-234.5625q30.375-30.375 66.234375-47.671875t72.984375-19.828125 72.984375 10.125 66.234375 43.03125z"  p-id="4011"></path></svg>