<svg id="图层_1" data-name="图层 1" xmlns="http://www.w3.org/2000/svg" viewBox="0 0 200 200"><defs></defs><path class="cls-1" d="M173,88.79l-8-9.4a11.36,11.36,0,0,1-2.68-6.47l-1-12.31a22.23,22.23,0,0,0-20.39-20.39l-12.32-1a11.39,11.39,0,0,1-6.47-2.68l-9.39-8a22.24,22.24,0,0,0-28.86,0l-9.4,8A11.39,11.39,0,0,1,68,39.22l-12.31,1A22.24,22.24,0,0,0,35.32,60.6l-1,12.32a11.36,11.36,0,0,1-2.68,6.47l-8,9.4a22.28,22.28,0,0,0,0,28.87l8,9.4a11.36,11.36,0,0,1,2.68,6.47l1,12.31A22.24,22.24,0,0,0,55.7,166.23l12.32,1a11.39,11.39,0,0,1,6.47,2.68l9.4,8a22.24,22.24,0,0,0,28.86,0l9.39-8a11.46,11.46,0,0,1,6.47-2.68l12.31-1a22.24,22.24,0,0,0,20.4-20.38l1-12.32a11.44,11.44,0,0,1,2.69-6.47l8-9.4a22.24,22.24,0,0,0,0-28.87ZM65.7,81.46A10.87,10.87,0,1,1,76.57,92.34,10.87,10.87,0,0,1,65.7,81.46Zm54.37,54.39A10.88,10.88,0,1,1,130.94,125v0A10.88,10.88,0,0,1,120.07,135.85Zm9.61-53.48L77.32,134.72a7.44,7.44,0,0,1-10.7-10.35c.12-.11.23-.23.35-.33l52.17-52.18a7.44,7.44,0,0,1,10.52,10.51Z"/></svg>