<svg id="图层_1" data-name="图层 1" xmlns="http://www.w3.org/2000/svg" viewBox="0 0 200 200"><defs></defs><path class="cls-1" d="M143.31,22.89H70.59A36.36,36.36,0,0,0,34.22,59.25v87.27a36.37,36.37,0,0,0,36.37,36.37h72.72a36.37,36.37,0,0,0,36.37-36.37V59.25A36.36,36.36,0,0,0,143.31,22.89ZM70.59,52h72.72a7.27,7.27,0,1,1,0,14.54H70.59a7.27,7.27,0,1,1,0-14.54Zm43.63,45.35a5.55,5.55,0,0,1-5.55,5.56H68.87a5.56,5.56,0,0,1-5.56-5.56V93.89a5.56,5.56,0,0,1,5.56-5.55h39.8a5.55,5.55,0,0,1,5.55,5.55Zm43.64,56.46a7.28,7.28,0,0,1-7.27,7.28H128.77a7.28,7.28,0,0,1-7.28-7.28V132a7.28,7.28,0,0,1,7.28-7.28h21.82a7.28,7.28,0,0,1,7.27,7.28Z"/></svg>