<svg id="图层_1" data-name="图层 1" xmlns="http://www.w3.org/2000/svg" viewBox="0 0 200 200"><defs></defs><path id="联合_56" data-name="联合 56" class="cls-1" d="M49.09,183A29.07,29.07,0,0,1,20,153.91V81.17a7.26,7.26,0,0,1,7.27-7.27H172.73A7.27,7.27,0,0,1,180,81.17h0v72.72A29.07,29.07,0,0,1,150.93,183H49.09Zm14.55-80.84v8.56a36.36,36.36,0,0,0,72.72,0v-8.56a6.4,6.4,0,0,0-12.8,0h0v8.56a23.53,23.53,0,0,1-47.06,0v-8.56a6.4,6.4,0,0,0-12.8,0h-.06ZM40.75,66.63a6.06,6.06,0,0,1-4.37-10.4L66.54,26.54a12.5,12.5,0,0,1,17.48,0l16,15.75,16-15.75a12.5,12.5,0,0,1,17.48,0l30.17,29.69a6.07,6.07,0,0,1-4.36,10.4Z"/></svg>