<svg id="图层_1" data-name="图层 1" xmlns="http://www.w3.org/2000/svg" viewBox="0 0 200 200"><defs></defs><path class="cls-1" d="M97.15,20.83A81,81,0,0,0,17.56,88c10.4,2,19.6,3.62,28.79,5.22,20,4.82,28.8,2.4,31.6,0,1.2-2.41,3.61-11.25-6.41-10.05s-28.79,3.62-27.6-7.64C46.34,63,69.15,63,86.75,67.85c0,0-3.61-6.44-12.8-7.64C64,59,58.75,59,60,52.57c0-6.44,7.6-10,20-2.41,8.8,6.44,11.2,11.25,17.61,18.89,0,0,30.39,6.44,48,18.89,0,0,14,10-2.4,20.09-14,4.83-16.4-3.62-44,7.65-26.41,10.07-54,27.76-59.21,33.78a24.26,24.26,0,0,0-3.21,4.42,80.86,80.86,0,0,0,60,26.94c44.41.79,80.81-35.38,80.81-79.6S141.16,20.83,97.15,20.83Z"/></svg>