<svg id="图层_1" data-name="图层 1" xmlns="http://www.w3.org/2000/svg" viewBox="0 0 200 200"><defs></defs><path class="cls-1" d="M168.61,81.94a7.51,7.51,0,0,0,5.8-7.11V66.61a29.09,29.09,0,0,0-29.09-29.09H43.5A29.08,29.08,0,0,0,14.41,66.61v8.22a7.51,7.51,0,0,0,5.8,7.11,21.82,21.82,0,0,1,0,42.07,7.51,7.51,0,0,0-5.8,7.11v8.22A29.09,29.09,0,0,0,43.5,168.43H145.32a29.1,29.1,0,0,0,29.09-29.09v-8.22a7.51,7.51,0,0,0-5.8-7.11,21.82,21.82,0,0,1,0-42.07Zm-52.38,46.49H72.59a7.28,7.28,0,0,1,0-14.55h43.64a7.28,7.28,0,0,1,0,14.55Zm0-36.36H72.59a7.28,7.28,0,0,1,0-14.55h43.64a7.28,7.28,0,0,1,0,14.55Z"/></svg>