<?xml version="1.0" standalone="no"?><!DOCTYPE svg PUBLIC "-//W3C//DTD SVG 1.1//EN" "http://www.w3.org/Graphics/SVG/1.1/DTD/svg11.dtd"><svg t="1706970623371" class="icon" viewBox="0 0 1024 1024" version="1.1" xmlns="http://www.w3.org/2000/svg" p-id="5363" xmlns:xlink="http://www.w3.org/1999/xlink" width="500" height="500"><path d="M511.999488 64.021106c-247.27171 0-447.724091 200.452381-447.724091 447.724091s200.452381 447.724091 447.724091 447.724091 447.724091-200.453405 447.724091-447.724091S759.271198 64.021106 511.999488 64.021106zM379.992989 256.420067c32.745798-27.629267 105.400538 30.699186 130.983193 28.652574 25.582655 2.046612 98.237395-56.281841 130.983193-28.652574s-39.653115 90.786703-39.653115 90.786703L419.629731 347.20677C419.629731 347.20677 347.24719 284.049335 379.992989 256.420067zM609.213577 379.952568c0 9.05012-7.322779 16.372899-16.372899 16.372899l-163.728992 0c-9.05012 0-16.372899-7.322779-16.372899-16.372899 0-9.05012 7.322779-16.372899 16.372899-16.372899l163.728992 0C601.890798 363.579669 609.213577 370.902448 609.213577 379.952568zM510.976182 772.550131c-126.60242 0-229.220588 11.416004-229.220588-95.67913 0-79.626525 56.761772-205.01428 137.874137-264.173658l182.676529 0c81.128739 59.159378 137.89051 184.547133 137.89051 264.173658C740.196771 783.967158 637.578602 772.550131 510.976182 772.550131z" fill="#00AFC7" p-id="5364"></path><path d="M513.491469 532.48352c7.241938 0 12.892635 2.263553 16.987906 6.766101 4.094248 4.501524 6.158257 10.979052 6.158257 19.408025l45.447075 0c0-14.20656-4.839215-25.6461-14.482853-34.387181-9.643638-8.741082-22.942525-14.086833-39.860846-16.060791L527.741008 483.71991l-23.452131 0 0 24.032346c-17.698081 1.443885-31.707143 6.237051-42.061978 14.400988-10.354835 8.162914-15.532765 18.58938-15.532765 31.253818 0 13.967106 5.110391 24.708751 15.362896 32.218796 10.253528 7.514137 26.158776 14.233166 47.713698 20.156062 9.91379 3.731998 16.784268 7.465019 20.608364 11.222599 3.822049 3.75451 5.750981 8.860808 5.750981 15.313777 0 6.309706-1.860371 11.342326-5.649674 15.145955-3.789303 3.781116-9.644661 5.685489-17.630542 5.685489-8.593725 0-15.498996-2.143826-20.608364-6.381337-5.110391-4.239558-7.68196-11.342326-7.68196-21.288862L440.229908 625.479541l-0.338714 0.579191c-0.440022 16.156982 5.110391 28.414143 16.649192 36.771485 11.538801 8.354272 26.39516 13.242606 44.497447 14.688537l0 22.419616 23.61893 0 0-22.539342c17.700127-1.444908 31.641651-6.069229 41.826618-13.942547 10.18599-7.875365 15.294334-18.325367 15.294334-31.375591 0-13.896498-5.245468-24.77936-15.70161-32.679283-10.456143-7.897877-26.15673-14.56881-47.070039-20.034289-10.455119-4.164856-17.528212-8.04114-21.183462-11.606339-3.653203-3.563152-5.480828-8.308223-5.514597-14.20656 0-6.382361 1.658779-11.488659 4.940522-15.316847C500.532319 534.410406 505.946632 532.48352 513.491469 532.48352z" fill="#00AFC7" p-id="5365"></path></svg>