<svg id="图层_1" data-name="图层 1" xmlns="http://www.w3.org/2000/svg" viewBox="0 0 100 100"><defs><style>.cls-1{fill:#00afc7;}</style></defs><path id="路径_124" data-name="路径 124" class="cls-1" d="M58.56,61.63a2.42,2.42,0,0,1-.17.88,1.76,1.76,0,0,1-.51.72,2.23,2.23,0,0,1-.73.49,2.37,2.37,0,0,1-.91.17H39a2.9,2.9,0,0,1-1-.17,2.34,2.34,0,0,1-.78-.49,2,2,0,0,1-.51-.72,2.42,2.42,0,0,1-.17-.88V48.84a2.19,2.19,0,0,1,.68-1.65,2.32,2.32,0,0,1,1.68-.67H56.19a2.35,2.35,0,0,1,1.69.66,2.24,2.24,0,0,1,.68,1.65v3.48H52.69A2.34,2.34,0,0,0,51,53a2.22,2.22,0,0,0-.67,1.66,2.48,2.48,0,0,0,.28,1.16,2.25,2.25,0,0,0,.67.77,2.55,2.55,0,0,0,1.42.38h5.86ZM55,45.31H43.21c1-.49,5.36-2.64,6.83-3.25a1.93,1.93,0,0,1,2.2.44Zm-3.5,9.32a1.17,1.17,0,0,1,.34-.83,1.26,1.26,0,0,1,1.7,0,1.2,1.2,0,0,1,0,1.65,1.26,1.26,0,0,1-1.7,0,1.09,1.09,0,0,1-.33-.82Z"/></svg>