<svg xmlns="http://www.w3.org/2000/svg" width="36" height="36" viewBox="0 0 36 36"><defs><style>.a,.b{fill:#00afc7;}.a{opacity:0;}.c{fill:#555;}</style></defs><g transform="translate(-64 -491)"><rect class="a" width="36" height="36" transform="translate(64 491)"/><g transform="translate(21.852 437.518)"><path class="b" d="M77.148,72.482a2.992,2.992,0,0,0-.879-2.122l-5.48-5.48a1.25,1.25,0,1,0-1.767,1.768l4.583,4.584H54.4a1.25,1.25,0,0,0,0,2.5H73.605l-4.583,4.583a1.249,1.249,0,0,0,0,1.768h0a1.249,1.249,0,0,0,1.767,0l5.48-5.48a2.991,2.991,0,0,0,.879-2.121Z" transform="translate(0 -1.032)"/><path class="c" d="M61.9,85.981H49.148a5.5,5.5,0,0,1-5.5-5.5v-18a5.5,5.5,0,0,1,5.5-5.5H61.9a1.249,1.249,0,0,0,1.25-1.25h0a1.249,1.249,0,0,0-1.25-1.249H49.148a8,8,0,0,0-8,8v18a8,8,0,0,0,8,8H61.9a1.25,1.25,0,0,0,1.25-1.25h0A1.25,1.25,0,0,0,61.9,85.981Z" transform="translate(2)"/></g></g></svg>