<svg xmlns="http://www.w3.org/2000/svg" width="36" height="36" viewBox="0 0 36 36"><defs><style>.a,.c{fill:#00afc7;}.a{opacity:0;}.b{fill:#555;}</style></defs><g transform="translate(-64 -491)"><rect class="a" width="36" height="36" transform="translate(64 491)"/><g transform="translate(-146.704 46.544)"><path class="b" d="M228.7,444.456a15,15,0,0,0-15,15c0,8.284,15,21,15,21s15-12.716,15-21A15,15,0,0,0,228.7,444.456Zm0,32.669c-5.395-4.919-12.5-12.975-12.5-17.669a12.5,12.5,0,0,1,25,0C241.2,464.15,234.1,472.206,228.7,477.125Z"/><path class="c" d="M228.7,453.456a6,6,0,1,0,6,6A6,6,0,0,0,228.7,453.456Zm0,9.5a3.5,3.5,0,1,1,3.5-3.5A3.5,3.5,0,0,1,228.7,462.956Z"/></g></g></svg>