<svg id="图层_1" data-name="图层 1" xmlns="http://www.w3.org/2000/svg" viewBox="0 0 100 100"><defs><style>.cls-1{fill:#ff9500;}</style></defs><path id="路径_123" data-name="路径 123" class="cls-1" d="M50,41.89a12,12,0,1,0,12,12h0A12,12,0,0,0,50,41.89ZM54.42,55.2a.94.94,0,0,1,1,.84.93.93,0,0,1-.83,1H50.93v2.27a.94.94,0,1,1-1.86.22.81.81,0,0,1,0-.22V57.08H45.58a.94.94,0,1,1-.2-1.87h3.69V52.86H45.58A.94.94,0,0,1,45.39,51a.61.61,0,0,1,.19,0H48l-.51-1-.6-1.16A.94.94,0,1,1,48.5,48l.48.93,0,0,.5,1h0l.5,1,.51-1h0l.5-1,0,0,.49-.93a1,1,0,0,1,1.3-.49h0a1,1,0,0,1,.35,1.36L52.58,50l-.52,1h2.35a.94.94,0,1,1,.2,1.87H50.93v2.35Z"/></svg>