<svg id="图层_1" data-name="图层 1" xmlns="http://www.w3.org/2000/svg" viewBox="0 0 100 100"><defs><style>.cls-1{fill:#00afc7;}</style></defs><g id="组_27" data-name="组 27"><path id="路径_110" data-name="路径 110" class="cls-1" d="M48.4,61.38A1.67,1.67,0,0,1,47.28,61L42.59,56.7a1.66,1.66,0,1,1,2.21-2.49l0,0,3.47,3.14,6.77-7.29a1.67,1.67,0,1,1,2.48,2.23l0,0-7.89,8.5A1.66,1.66,0,0,1,48.4,61.38Z"/><path id="路径_111" data-name="路径 111" class="cls-1" d="M50,75.46a20,20,0,1,1,20-20A20,20,0,0,1,50,75.46ZM50,38.8A16.67,16.67,0,1,0,66.67,55.46h0A16.68,16.68,0,0,0,50,38.8Z"/></g></svg>