<svg id="图层_1" data-name="图层 1" xmlns="http://www.w3.org/2000/svg" viewBox="0 0 48 48"><defs><style>.cls-1{fill:#ff9500;}</style></defs><path id="路径_123" data-name="路径 123" class="cls-1" d="M24,4A20,20,0,1,0,44,24h0A20,20,0,0,0,24,4Zm7.36,22.19a1.57,1.57,0,1,1,.32,3.12,1.71,1.71,0,0,1-.32,0H25.55v3.78a1.56,1.56,0,0,1-3.1.4,1.34,1.34,0,0,1,0-.4V29.32H16.64a1.57,1.57,0,0,1-.32-3.12h6.12V22.28h-5.8a1.57,1.57,0,1,1-.34-3.12,1.93,1.93,0,0,1,.34,0h4l-.85-1.63-1-1.93a1.67,1.67,0,0,1,.57-2.27,1.65,1.65,0,0,1,2.17.81l.81,1.56,0,.07.83,1.6h0L24,19l.85-1.62h0l.83-1.6.05-.07.8-1.56a1.65,1.65,0,0,1,2.18-.81h0a1.67,1.67,0,0,1,.57,2.27l-1,1.93-.85,1.63h3.91a1.57,1.57,0,1,1,.34,3.12H25.54v3.91Z"/></svg>