<svg id="图层_1" data-name="图层 1" xmlns="http://www.w3.org/2000/svg" viewBox="0 0 48 48"><defs><style>.cls-1{fill:#00afc7;}</style></defs><path id="路径_124" data-name="路径 124" class="cls-1" d="M42,37.14a3.52,3.52,0,0,1-.27,1.44,2.82,2.82,0,0,1-.83,1.18,3.49,3.49,0,0,1-1.2.81,4.13,4.13,0,0,1-1.48.27H10a4.63,4.63,0,0,1-1.57-.27,3.86,3.86,0,0,1-1.29-.81,3.54,3.54,0,0,1-.84-1.18A3.92,3.92,0,0,1,6,37.14V16.21A3.6,3.6,0,0,1,7.11,13.5a3.78,3.78,0,0,1,2.76-1.08H38.12a3.81,3.81,0,0,1,2.77,1.08A3.67,3.67,0,0,1,42,16.21v5.68H32.4A3.78,3.78,0,0,0,29.63,23a3.61,3.61,0,0,0-1.11,2.7,4.16,4.16,0,0,0,.46,1.9,3.56,3.56,0,0,0,1.11,1.26,4.1,4.1,0,0,0,2.31.64H42Zm-5.81-26.7H16.89c1.57-.81,8.77-4.33,11.17-5.33a3.19,3.19,0,0,1,3.6.72ZM30.46,25.68A1.76,1.76,0,0,1,31,24.33a2,2,0,0,1,2.77,0,1.93,1.93,0,0,1,0,2.71A2,2,0,0,1,31,27a1.87,1.87,0,0,1-.55-1.36Z"/></svg>