<svg id="图层_1" data-name="图层 1" xmlns="http://www.w3.org/2000/svg" viewBox="0 0 40 40"><defs><style>.cls-1{fill:#00afc7;}.cls-2{fill:#555;}</style></defs><path class="cls-1" d="M22.31,23.75H17.16L19,21.88a1.24,1.24,0,0,0-1.76-1.76L13.37,24A1.24,1.24,0,0,0,13,25,.43.43,0,0,0,13,25h0a1.25,1.25,0,0,0,1.25,1.25h8.14a2.08,2.08,0,0,1,2.08,1.66,2,2,0,0,1-2,2.34H14.25A1.25,1.25,0,0,0,13,31.5h0a1.25,1.25,0,0,0,1.25,1.25H22.5A4.51,4.51,0,0,0,27,27.81,4.63,4.63,0,0,0,22.31,23.75Z"/><path class="cls-2" d="M38,16a1.18,1.18,0,0,0-.11-.5,5.84,5.84,0,0,0-.9-2.26L33.78,8.42a6,6,0,0,0-5-2.67H11.21a6,6,0,0,0-5,2.67L3,13.24a5.84,5.84,0,0,0-.9,2.26A1.18,1.18,0,0,0,2,16a.8.8,0,0,0,0,.15c0,.14,0,.28,0,.42V31.75a6,6,0,0,0,6,6H32a6,6,0,0,0,6-6V16.57c0-.14,0-.28,0-.42A.8.8,0,0,0,38,16ZM8.3,9.81a3.48,3.48,0,0,1,2.91-1.56H28.79A3.48,3.48,0,0,1,31.7,9.81l3.21,4.82a.75.75,0,0,1,.07.12H5l.07-.13ZM32,35.25H8a3.5,3.5,0,0,1-3.5-3.5V17.25h31v14.5A3.5,3.5,0,0,1,32,35.25Z"/></svg>