<svg id="图层_1" data-name="图层 1" xmlns="http://www.w3.org/2000/svg" viewBox="0 0 48 48"><defs><style>.cls-1{fill:#ccc;}</style></defs><path id="路径_134" data-name="路径 134" class="cls-1" d="M43.81,21.54,37.6,9a1.7,1.7,0,0,0-1.52-1H12a1.72,1.72,0,0,0-1.52,1L4.19,21.52a1.84,1.84,0,0,0,.28,2.05L22.74,43.45A1.68,1.68,0,0,0,24,44h0a1.66,1.66,0,0,0,1.23-.55L43.52,23.59A1.84,1.84,0,0,0,43.81,21.54ZM34,23.81l-8.87,9.25a1.52,1.52,0,0,1-2.16,0l-.05,0L14,23.81a1.53,1.53,0,0,1,2.21-2.12L24,29.79l7.76-8.1a1.55,1.55,0,0,1,2.17,0A1.53,1.53,0,0,1,34,23.81Z"/></svg>