<svg id="图层_1" data-name="图层 1" xmlns="http://www.w3.org/2000/svg" viewBox="0 0 48 48"><defs><style>.cls-1{fill:#00afc7;}</style></defs><path id="路径_134" data-name="路径 134" class="cls-1" d="M42.58,21.54,36.37,9a1.7,1.7,0,0,0-1.52-1H10.76A1.71,1.71,0,0,0,9.24,9L3,21.52a1.82,1.82,0,0,0,.28,2.05L21.51,43.45a1.68,1.68,0,0,0,1.24.55h0A1.68,1.68,0,0,0,24,43.45L42.29,23.59A1.84,1.84,0,0,0,42.58,21.54Zm-9.85,2.27-8.87,9.25a1.52,1.52,0,0,1-2.16,0l-.05,0L12.8,23.81A1.53,1.53,0,0,1,15,21.69l7.75,8.1,7.76-8.1a1.53,1.53,0,0,1,2.21,2.12Z"/></svg>