<svg id="图层_1" data-name="图层 1" xmlns="http://www.w3.org/2000/svg" viewBox="0 0 200 200"><defs><style>.cls-1{fill:#00bb9c;}</style></defs><path id="路径_496" data-name="路径 496" class="cls-1" d="M79.22,114.62c-9.58,5.2-11-2.92-11-2.92l-12-27.3c-4.61-13,4-5.85,4-5.85s7.39,5.45,13,8.77a15.35,15.35,0,0,0,12,1L163.69,53A84.65,84.65,0,0,0,98.22,24c-44.19,0-80,30.56-80,68.25,0,21.68,11.86,41,30.33,53.48l-3.33,18.66s-1.62,5.46,4,2.93c3.84-1.73,13.6-7.9,19.43-11.66a91.82,91.82,0,0,0,29.57,4.84c44.18,0,80-30.56,80-68.25a59.93,59.93,0,0,0-8.36-30.38c-25,14.66-83.15,48.74-90.64,52.8Z"/></svg>