<svg xmlns="http://www.w3.org/2000/svg" width="155.773" height="106.258" viewBox="0 0 155.773 106.258"><defs><style>.a{fill:#f1f1f1;}.b{fill:#e3edf1;}.c{fill:#f4f4f4;}.d{fill:#fff;}.e{fill:#e2e2e2;}</style></defs><g transform="translate(0.001 -171.568)"><path class="a" d="M138.636,175.391a3.822,3.822,0,0,1-3.822,3.82H119.522a3.821,3.821,0,1,1,0-7.643h15.292A3.825,3.825,0,0,1,138.636,175.391Zm20.813,0c0,2.111-1.2,3.82-2.692,3.82H146c-1.488,0-2.692-1.711-2.692-3.82s1.2-3.823,2.692-3.823h10.757C158.245,171.568,159.449,173.28,159.449,175.391Zm23.362,15.5a4.46,4.46,0,0,1-4.463,4.461H134.174a4.46,4.46,0,0,1,0-8.92h44.175a4.459,4.459,0,0,1,4.462,4.459Zm11.894,15.928a4.249,4.249,0,0,1-4.249,4.25H123.768a4.249,4.249,0,1,1,0-8.5h66.686a4.251,4.251,0,0,1,4.251,4.248Zm3.823,15.081a4.461,4.461,0,0,1-4.46,4.462H181.747a4.461,4.461,0,0,1,0-8.923h12.321a4.459,4.459,0,0,1,4.46,4.461Zm-24.638,0c0,2.465-2.967,4.462-6.635,4.462H81.974c-3.662,0-6.631-2-6.631-4.462s2.969-4.461,6.631-4.461h85.281C170.923,217.443,173.891,219.44,173.891,221.9Zm0,0" transform="translate(-63.875)"/><path class="a" d="M158.019,536.2a4.673,4.673,0,0,1-4.675,4.674h-6.372a4.672,4.672,0,1,1,0-9.345h6.372A4.673,4.673,0,0,1,158.019,536.2Zm0,0" transform="translate(-120.639 -305.169)"/><path class="a" d="M83.255,593.83a5.1,5.1,0,0,1-5.1,5.1H5.1a5.1,5.1,0,0,1,0-10.2h73.06a5.1,5.1,0,0,1,5.1,5.1Zm65.416,18.009a5.053,5.053,0,0,1-5.051,5.052H82.785a5.054,5.054,0,0,1,0-10.1h60.833A5.055,5.055,0,0,1,148.672,611.839Zm0,0" transform="translate(0 -353.662)"/><path class="b" d="M573.184,777.355a3.655,3.655,0,0,1-3.658,3.656h-5.006a3.656,3.656,0,1,1,0-7.312h5.007A3.659,3.659,0,0,1,573.184,777.355Zm0,0" transform="translate(-475.486 -510.471)"/><path class="c" d="M490.952,825.376a3.642,3.642,0,0,1-3.646,3.642H419.4a3.643,3.643,0,0,1,0-7.286h67.9A3.644,3.644,0,0,1,490.952,825.376Zm14.013,0a3.643,3.643,0,0,1-3.641,3.642h-2.908a3.643,3.643,0,1,1,0-7.286h2.908A3.643,3.643,0,0,1,504.965,825.376Zm0,0" transform="translate(-352.472 -551.193)"/><path class="d" d="M323.116,210.011h-63.8s-4.906-.613-5.216,5.829,0,73.987,0,82.772c-.1,7.172,8.788,8.735,11.963,4.651,4.3-5.213,1.534-11.35.615-11.658s59.815,0,59.815,0V218.292s.847-8.3-3.378-8.281Zm0,0" transform="translate(-215.304 -32.578)"/><path class="e" d="M256.654,301.857a8.022,8.022,0,0,1-5.717-2.29,7.318,7.318,0,0,1-2.04-5.382c0-1.964-.016-6.913-.036-13.473-.07-22.476-.2-64.313.036-69.325.233-4.867,3.082-6.6,5.67-6.6a3.574,3.574,0,0,1,.437.022l63.7-.005a3.337,3.337,0,0,1,2.58,1.136c2.136,2.364,1.608,7.789,1.586,8.018l0,74.029-.8,0s-26.993-.137-44.714-.137c-8.034,0-11.821.029-13.565.06a9.62,9.62,0,0,1,.558,1.47,10.851,10.851,0,0,1-2.094,9.973,6.983,6.983,0,0,1-5.611,2.506Zm-2.086-95.485c-1.155,0-3.865.5-4.086,5.09-.237,4.971-.106,46.782-.036,69.244.021,6.562.036,11.515.036,13.491a5.768,5.768,0,0,0,1.583,4.256,6.446,6.446,0,0,0,4.589,1.818,5.419,5.419,0,0,0,4.371-1.911,9.172,9.172,0,0,0,2.112-6.988,6.661,6.661,0,0,0-1.219-3.476.751.751,0,0,1-.444-.838c.05-.312.08-.5,1.042-.615v0l0,0c1.5-.179,5.256-.179,14.842-.179,15.925,0,39.335.11,43.923.133V213.878c.144-1.451.2-5.348-1.179-6.876a1.763,1.763,0,0,0-1.392-.614H254.9C254.794,206.382,254.7,206.373,254.567,206.373Zm0,0" transform="translate(-210.894 -28.163)"/><path class="a" d="M309.113,301.808h56.123v15.419H309.113Zm0,20.706h53.121v3.322H309.113Zm0,8.211h28.06v3.322h-28.06v-3.322Zm0,9.592H355.3v3.323H309.113Zm0,9.536H343.1v3.322H309.113Zm82.73,12.738c1.378,1.377,1.767,3.257.871,4.2s-2.741.586-4.115-.794l-13.225-13.232c-1.375-1.377-1.766-3.257-.866-4.2s2.74-.586,4.112.794Zm0,0" transform="translate(-262.059 -110.414)"/><path class="a" d="M750.621,623.184a4.534,4.534,0,0,1-3.051-1.436l-13.223-13.232c-1.553-1.553-1.935-3.641-.872-4.752,1.011-1.069,3.195-.7,4.679.789l13.222,13.231c1.553,1.55,1.94,3.637.877,4.75A2.177,2.177,0,0,1,750.621,623.184ZM735.1,603.909a1.422,1.422,0,0,0-1.054.4c-.74.771-.345,2.442.858,3.646l13.223,13.232a3.746,3.746,0,0,0,2.491,1.2,1.43,1.43,0,0,0,1.058-.4c.739-.773.341-2.442-.862-3.644l-13.223-13.233A3.74,3.74,0,0,0,735.1,603.909Zm0,0" transform="translate(-621.312 -365.886)"/><path class="e" d="M734.86,611.193c-1.013.3.378-.589-.123.653a3.1,3.1,0,0,0,1.062,2.779L748.356,627.4c1.293,1.32,3.878,2.659,4.512,1.865.065-.084.139-.158.2-.239Zm0,0" transform="translate(-622.674 -372.676)"/><path class="d" d="M574.568,427.934a18.61,18.61,0,1,0,0,26.321,18.624,18.624,0,0,0,0-26.321" transform="translate(-460.182 -212.729)"/><path class="e" d="M556.991,456.066a19.393,19.393,0,1,1,13.715-5.672,19.284,19.284,0,0,1-13.715,5.672Zm0-37.2a17.808,17.808,0,1,0,12.592,5.209A17.7,17.7,0,0,0,556.995,418.867Zm0,0" transform="translate(-455.762 -208.309)"/><path class="a" d="M363.153,476.331h-2.278v-.794h2.278Zm-4.657,0h-2.379v-.794H358.5Zm-4.756,0h-2.379v-.794h2.379Zm-4.759,0H346.6v-.794h2.378Zm-4.755,0h-2.379v-.794h2.379Zm13.051-6.489H354.9v-.794h2.379Zm-4.756,0h-2.378v-.794h2.378Zm-4.757,0h-2.379v-.794h2.379Zm17.589,14.971H363.13v-.794h2.223Zm-4.6,0h-2.377v-.794h2.377Zm-4.756,0h-2.379v-.794H356Zm-4.757,0h-2.379v-.794h2.379Zm-4.759,0H344.1v-.794h2.377Zm-4.754,0h-2.379v-.794h2.379Zm16.517,7.958h-2.379v-.794h2.379Zm-4.759,0h-2.377v-.794h2.377Zm-4.755,0H346.35v-.794h2.379Zm0,0M302.2,510.677s5.836,10.985-5.033,14.422h0c12.177-.109,70.065.3,70.065.3s4.6-2.867,5.868-5.983-.92-7.509-2.762-8.788C366.313,510.239,302.2,510.677,302.2,510.677Zm0,0" transform="translate(-251.708 -252.196)"/><path class="e" d="M365.145,754.263h-.115c-.45,0-45.222-.32-63.994-.32-2.509,0-4.568,0-6,.017l-.022.008-.645-.07-.05-.383.02-.376h.376l.042.006v0l.177.019c2.88-.927,4.786-2.491,5.668-4.646,1.69-4.127-.92-9.138-.946-9.188l-.307-.577.653-.005c.307,0,30.874-.208,50.892-.208,10.349,0,16.167.055,17.289.164l.1.011.086.058c2.043,1.419,4.212,6.037,2.9,9.264-1.3,3.2-5.832,6.049-6.026,6.171Zm-64.109-1.113c18.3,0,61.3.3,63.883.32.656-.427,4.509-3.017,5.615-5.736,1.184-2.928-.906-7.034-2.537-8.254-1.323-.1-7.076-.15-17.107-.15-18.426,0-45.792.176-50.261.2.67,1.5,2.2,5.62.7,9.279a8.377,8.377,0,0,1-4.268,4.344C298.2,753.152,299.535,753.15,301.036,753.15Zm0,0" transform="translate(-249.513 -480.661)"/><path class="d" d="M813.3,316.566a5.816,5.816,0,0,1-5.857,5.768H781.8a5.815,5.815,0,0,1-5.857-5.768v-1.954a5.816,5.816,0,0,1,5.857-5.77h25.642a5.817,5.817,0,0,1,5.857,5.77v1.954Zm0,0" transform="translate(-657.823 -116.377)"/><path class="e" d="M805.777,320.985H780.136a6.119,6.119,0,0,1-6.156-6.067v-1.954a6.117,6.117,0,0,1,6.156-6.066h25.642a6.119,6.119,0,0,1,6.156,6.066v1.954A6.121,6.121,0,0,1,805.777,320.985Zm-25.642-13.492a5.523,5.523,0,0,0-5.56,5.471v1.954a5.523,5.523,0,0,0,5.56,5.472h25.642a5.522,5.522,0,0,0,5.559-5.472v-1.954a5.522,5.522,0,0,0-5.559-5.471Zm0,0" transform="translate(-656.161 -114.729)"/><path class="e" d="M848.578,401.863l2.244-6.337h8.29Zm2.664-5.742-1.55,4.379,7.275-4.379Zm0,0" transform="translate(-719.403 -189.866)"/><path class="d" d="M864.412,390.387l.866-2.542,2.391-.492,2.432.531.809.406.552.063-4.211,2.523Zm0,0" transform="translate(-732.827 -182.937)"/><path class="a" d="M834.409,339.057a1.787,1.787,0,1,0,1.786,1.733A1.787,1.787,0,0,0,834.409,339.057Zm-10.777,0a1.787,1.787,0,1,0,1.786,1.733,1.787,1.787,0,0,0-1.786-1.733Zm21.554,0a1.79,1.79,0,1,0,1.786,1.733,1.787,1.787,0,0,0-1.786-1.733Z" transform="translate(-696.739 -141.783)"/></g></svg>